# xmcd
#
# Track frame offsets:
#        150
#        22677
#        39150
#        59035
#        80540
#
# Disc length: 1390 seconds
#
# Revision: 0
# Processed by: cddbd v1.5.1PL0 Copyright (c) Steve Scherf et al.
# Submitted via: ExactAudioCopy v0.95a5
#
DISCID=31056c05
DTITLE=TRICERATOPS - TRICERATOPS
DYEAR=1997
DGENRE=Rock
TTITLE0=Snow white
TTITLE1=Special.K
TTITLE2=Raspberry
TTITLE3=Future shock
TTITLE4=Dr.Frankenstein
EXTD=
EXTT0=
EXTT1=
EXTT2=
EXTT3=
EXTT4=
PLAYORDER=
